<svg width="185.2" height="98.4" viewBox="0 0 185.2 98.4" xmlns="http://www.w3.org/2000/svg"><g id="svgGroup" stroke-linecap="round" fill-rule="evenodd" font-size="9pt" stroke="#000" stroke-width="0" fill="#ffe349" style="stroke:#000;stroke-width:0;fill:#ffe349"><path d="M 16.7 36.3 L 16.4 35.8 L 17.2 29.2 L 26 27.9 L 26.5 23.1 A 17.863 17.863 0 0 1 28.365 17.055 A 22.505 22.505 0 0 1 29.75 14.7 A 32.386 32.386 0 0 1 35.176 8.533 A 37.439 37.439 0 0 1 36.7 7.25 Q 40.9 3.9 45.9 1.95 A 28.781 28.781 0 0 1 51.919 0.298 A 24.473 24.473 0 0 1 55.7 0 A 46.071 46.071 0 0 1 60.736 0.285 A 51.68 51.68 0 0 1 61.7 0.4 A 36.978 36.978 0 0 1 63.786 0.726 Q 64.761 0.909 65.592 1.131 A 16.673 16.673 0 0 1 66.8 1.5 L 67.2 2.6 L 61.3 15.7 L 59.3 16 Q 56.511 13.841 54.653 12.855 A 13.181 13.181 0 0 0 54.25 12.65 Q 52.3 11.7 50.5 11.7 Q 47.3 11.7 45.75 13.55 Q 44.439 15.115 43.807 18.719 A 30.112 30.112 0 0 0 43.6 20.1 L 42.7 28.1 L 55.2 28.1 L 55.9 28.8 L 54.7 36.3 L 42.5 36.2 L 41.7 36.7 L 37.6 74.8 A 19.55 19.55 0 0 1 36.105 80.575 A 24.581 24.581 0 0 1 34.8 83.2 Q 32.4 87.4 28.85 90.85 A 32.165 32.165 0 0 1 23.489 95.086 A 28.529 28.529 0 0 1 21.25 96.35 A 20.29 20.29 0 0 1 17.508 97.821 A 15.348 15.348 0 0 1 13.4 98.4 Q 8.6 98.4 4.8 96.6 A 14.599 14.599 0 0 1 2.802 95.469 Q 1.819 94.796 1.142 94.036 A 5.993 5.993 0 0 1 0 92.2 A 25.723 25.723 0 0 1 0.613 90.415 Q 0.968 89.487 1.426 88.465 A 48.177 48.177 0 0 1 1.8 87.65 Q 3 85.1 4.45 82.75 Q 5.9 80.4 7 79 L 9 79 A 20.733 20.733 0 0 0 9.308 81.165 Q 9.838 83.792 11 85.1 A 4.808 4.808 0 0 0 12.939 86.392 Q 13.735 86.692 14.726 86.815 A 12.001 12.001 0 0 0 16.2 86.9 A 6.656 6.656 0 0 0 18.508 86.515 A 5.819 5.819 0 0 0 20.9 84.85 A 6.518 6.518 0 0 0 22.162 82.592 Q 22.49 81.614 22.618 80.42 A 15.202 15.202 0 0 0 22.7 78.8 Q 22.7 77.4 22.65 75.8 A 36.214 36.214 0 0 1 22.638 75.304 Q 22.622 74.393 22.663 73.788 A 7.069 7.069 0 0 1 22.7 73.4 L 25.2 37.3 L 24.1 36.3 L 16.7 36.3 Z M 102.5 48 L 95.2 48.5 L 95.65 46.6 Q 96.1 44.7 96.85 41.5 Q 97.6 38.3 98.35 34.5 Q 99.1 30.7 99.7 26.9 L 104 25.8 L 105.4 26.1 Q 106.652 26.368 108.585 26.717 A 195.514 195.514 0 0 0 109.05 26.8 Q 111.3 27.2 113.9 27.65 Q 116.5 28.1 119 28.4 A 49.973 49.973 0 0 0 120.777 28.583 Q 121.651 28.656 122.418 28.684 A 24.693 24.693 0 0 0 123.3 28.7 A 23.432 23.432 0 0 0 124.712 28.66 Q 126.38 28.559 127.35 28.2 A 5.631 5.631 0 0 0 128.605 27.533 Q 129.133 27.166 129.654 26.656 A 10.538 10.538 0 0 0 130 26.3 L 132.6 23.4 L 139.4 29.8 L 139.8 31.8 Q 135.1 36.3 130.35 40.9 Q 125.6 45.5 121.05 50.15 Q 116.5 54.8 112.2 59.3 L 114.4 59 Q 116 59 119 59.35 A 69.083 69.083 0 0 0 120.768 59.535 Q 122.594 59.7 123.9 59.7 A 4.69 4.69 0 0 0 126.978 58.538 A 7.404 7.404 0 0 0 128.1 57.35 A 9.993 9.993 0 0 0 129.601 54.493 Q 130.109 53.011 130.3 51.2 L 133.4 51.2 A 6.222 6.222 0 0 1 133.86 52.131 Q 134.263 53.132 134.57 54.62 A 26.299 26.299 0 0 1 134.7 55.3 Q 135.2 58.1 135.2 60.9 Q 135.2 65 133.4 68.3 Q 131.6 71.6 128.55 73.5 A 12.63 12.63 0 0 1 122.562 75.37 A 15.39 15.39 0 0 1 121.6 75.4 Q 118.6 75.4 115.75 74.3 Q 112.9 73.2 110.15 72.1 A 14.938 14.938 0 0 0 105.125 71.01 A 14.227 14.227 0 0 0 104.6 71 A 16.66 16.66 0 0 0 102.009 71.216 Q 100.359 71.476 98.5 72.05 A 25.777 25.777 0 0 0 94.767 73.515 A 21.048 21.048 0 0 0 92.5 74.8 L 89.7 70.3 L 116.4 41.2 L 112.3 41.1 A 19.777 19.777 0 0 0 110.055 41.219 Q 107.648 41.494 106.182 42.412 A 5.525 5.525 0 0 0 105.9 42.6 A 6.811 6.811 0 0 0 104.388 44.129 Q 103.812 44.913 103.318 45.947 A 17.928 17.928 0 0 0 102.5 48 Z M 147.9 48 L 140.6 48.5 L 141.05 46.6 Q 141.5 44.7 142.25 41.5 Q 143 38.3 143.75 34.5 Q 144.5 30.7 145.1 26.9 L 149.4 25.8 L 150.8 26.1 Q 152.052 26.368 153.985 26.717 A 195.514 195.514 0 0 0 154.45 26.8 Q 156.7 27.2 159.3 27.65 Q 161.9 28.1 164.4 28.4 A 49.973 49.973 0 0 0 166.177 28.583 Q 167.051 28.656 167.818 28.684 A 24.693 24.693 0 0 0 168.7 28.7 A 23.432 23.432 0 0 0 170.112 28.66 Q 171.78 28.559 172.75 28.2 A 5.631 5.631 0 0 0 174.005 27.533 Q 174.533 27.166 175.054 26.656 A 10.538 10.538 0 0 0 175.4 26.3 L 178 23.4 L 184.8 29.8 L 185.2 31.8 Q 180.5 36.3 175.75 40.9 Q 171 45.5 166.45 50.15 Q 161.9 54.8 157.6 59.3 L 159.8 59 Q 161.4 59 164.4 59.35 A 69.083 69.083 0 0 0 166.168 59.535 Q 167.994 59.7 169.3 59.7 A 4.69 4.69 0 0 0 172.378 58.538 A 7.404 7.404 0 0 0 173.5 57.35 A 9.993 9.993 0 0 0 175.001 54.493 Q 175.509 53.011 175.7 51.2 L 178.8 51.2 A 6.222 6.222 0 0 1 179.26 52.131 Q 179.663 53.132 179.97 54.62 A 26.299 26.299 0 0 1 180.1 55.3 Q 180.6 58.1 180.6 60.9 Q 180.6 65 178.8 68.3 Q 177 71.6 173.95 73.5 A 12.63 12.63 0 0 1 167.962 75.37 A 15.39 15.39 0 0 1 167 75.4 Q 164 75.4 161.15 74.3 Q 158.3 73.2 155.55 72.1 A 14.938 14.938 0 0 0 150.525 71.01 A 14.227 14.227 0 0 0 150 71 A 16.66 16.66 0 0 0 147.409 71.216 Q 145.759 71.476 143.9 72.05 A 25.777 25.777 0 0 0 140.167 73.515 A 21.048 21.048 0 0 0 137.9 74.8 L 135.1 70.3 L 161.8 41.2 L 157.7 41.1 A 19.777 19.777 0 0 0 155.455 41.219 Q 153.048 41.494 151.582 42.412 A 5.525 5.525 0 0 0 151.3 42.6 A 6.811 6.811 0 0 0 149.788 44.129 Q 149.212 44.913 148.718 45.947 A 17.928 17.928 0 0 0 147.9 48 Z M 82.3 58.5 L 82.7 58.8 A 1.028 1.028 0 0 0 83.046 58.733 Q 83.352 58.624 83.727 58.333 A 5.207 5.207 0 0 0 83.95 58.15 A 215.654 215.654 0 0 0 84.317 57.831 Q 85.3 56.975 87.9 54.7 L 90.2 55.1 L 92.2 59.9 A 198.751 198.751 0 0 1 88.865 63.604 Q 85.845 66.869 83.45 69.1 A 45.343 45.343 0 0 1 81.242 71.035 Q 80.068 71.994 78.982 72.723 A 19.019 19.019 0 0 1 76.9 73.95 Q 74 75.4 71.2 75.4 A 9.342 9.342 0 0 1 68.568 75.062 Q 65.654 74.205 64.88 71.176 A 10.021 10.021 0 0 1 64.6 68.7 A 3079.504 3079.504 0 0 0 65.655 62.405 Q 66.065 59.94 66.426 57.739 A 1508.421 1508.421 0 0 0 67.1 53.6 A 932.193 932.193 0 0 0 67.569 50.666 Q 68.225 46.513 68.6 43.85 A 207.625 207.625 0 0 0 68.77 42.619 Q 69.1 40.169 69.1 39.6 A 5.737 5.737 0 0 0 69.033 38.692 Q 68.956 38.214 68.791 37.834 A 2.357 2.357 0 0 0 68.3 37.1 A 2.439 2.439 0 0 0 67.39 36.539 Q 66.73 36.3 65.8 36.3 L 63 36.3 L 64.2 28.1 A 106.659 106.659 0 0 0 66.237 28.079 Q 67.153 28.061 68.181 28.029 A 223.193 223.193 0 0 0 70.35 27.95 Q 74 27.8 78.2 27.5 Q 82.4 27.2 86.5 26.9 L 88.1 28.9 Q 87 33.1 85.9 38.35 Q 84.8 43.6 83.85 48.85 Q 82.9 54.1 82.3 58.5 Z M 75.974 21.674 A 12.197 12.197 0 0 0 78.4 21.9 A 14.558 14.558 0 0 0 80.096 21.804 A 10.542 10.542 0 0 0 86.65 18.65 A 10.737 10.737 0 0 0 89.322 13.919 A 14.481 14.481 0 0 0 89.8 10.1 Q 89.8 8.66 89.499 7.457 A 7.1 7.1 0 0 0 87.7 4.15 A 6.314 6.314 0 0 0 86.451 3.16 Q 84.538 2 81.6 2 A 14.767 14.767 0 0 0 79.497 2.145 A 10.52 10.52 0 0 0 73.25 5.25 A 10.756 10.756 0 0 0 70.543 10.152 A 15.022 15.022 0 0 0 70.1 13.9 A 13.173 13.173 0 0 0 70.102 14.121 Q 70.163 17.762 72.25 19.8 A 6.502 6.502 0 0 0 73.451 20.725 Q 74.549 21.385 75.974 21.674 Z" vector-effect="non-scaling-stroke"/></g></svg>